<?xml version="1.0" encoding="iso-8859-1"?>
<!-- Generator: Adobe Illustrator 19.0.0, SVG Export Plug-In . SVG Version: 6.00 Build 0)  -->
<svg version="1.1" id="Capa_1" xmlns="http://www.w3.org/2000/svg" xmlns:xlink="http://www.w3.org/1999/xlink" x="0px" y="0px"
	 viewBox="0 0 512 512" style="enable-background:new 0 0 512 512;" xml:space="preserve">
<g transform="matrix(1.25 0 0 -1.25 0 45)">
	<g>
		<path style="fill:#C1694F;" d="M238.933-128.978c0-25.133-20.378-45.511-45.511-45.511H45.511C20.378-174.489,0-154.111,0-128.978
			v34.133c0,25.133,20.378,45.511,45.511,45.511h147.911c25.133,0,45.511-20.378,45.511-45.511V-128.978z"/>
		<path style="fill:#C1694F;" d="M409.6-26.578c0-25.133-20.378-45.511-45.511-45.511H227.556
			c-25.133,0-45.511,20.378-45.511,45.511V-15.2c0,25.133,20.378,45.511,45.511,45.511h136.533
			c25.133,0,45.511-20.378,45.511-45.511V-26.578z"/>
	</g>
	<path style="fill:#FFCC4D;" d="M0-94.844v-250.311c0-12.572,10.195-22.756,22.756-22.756h352.711v273.067L0-94.844L0-94.844z"/>
	<g>
		<path style="fill:#55ACEE;" d="M159.289-367.911H22.756v45.511h136.533V-367.911z"/>
		<path style="fill:#55ACEE;" d="M204.8-299.644H22.756v45.511H204.8V-299.644z"/>
	</g>
	<path style="fill:#FFE8B6;" d="M182.044-15.2v-352.711h204.8c12.572,0,22.756,10.183,22.756,22.756V-15.2L182.044-15.2
		L182.044-15.2z"/>
	<g>
		<path style="fill:#55ACEE;" d="M386.844-231.378H204.8v45.511h182.044L386.844-231.378L386.844-231.378z"/>
		<path style="fill:#55ACEE;" d="M386.844-163.111H204.8v45.511h182.044L386.844-163.111L386.844-163.111z"/>
		<path style="fill:#55ACEE;" d="M386.844-94.844H204.8v45.511h182.044L386.844-94.844L386.844-94.844z"/>
		<path style="fill:#55ACEE;" d="M386.844-299.644H204.8v45.511h182.044L386.844-299.644L386.844-299.644z"/>
	</g>
	<g>
		<path style="fill:#FFE8B6;" d="M273.067-311.022h-22.756v273.067h22.756V-311.022z"/>
		<path style="fill:#FFE8B6;" d="M341.333-311.022h-22.756v273.067h22.756V-311.022z"/>
	</g>
	<g>
		<path style="fill:#3B88C3;" d="M341.333-367.911h-91.022v45.511h91.022V-367.911z"/>
		<path style="fill:#3B88C3;" d="M113.778-117.6v-45.511H68.267v45.511H45.511v-113.778h22.756v45.511h45.511v-45.511h22.756V-117.6
			H113.778z"/>
	</g>
	<g>
		<path style="fill:#FFCC4D;" d="M102.4-311.022H79.644v68.267H102.4C102.4-242.756,102.4-311.022,102.4-311.022z"/>
		<path style="fill:#FFCC4D;" d="M182.044-311.022h-22.756v68.267h22.756V-311.022z"/>
	</g>
</g>
<g>
</g>
<g>
</g>
<g>
</g>
<g>
</g>
<g>
</g>
<g>
</g>
<g>
</g>
<g>
</g>
<g>
</g>
<g>
</g>
<g>
</g>
<g>
</g>
<g>
</g>
<g>
</g>
<g>
</g>
</svg>
