<?xml version="1.0" encoding="iso-8859-1"?>
<!-- Generator: Adobe Illustrator 19.0.0, SVG Export Plug-In . SVG Version: 6.00 Build 0)  -->
<svg version="1.1" id="Layer_1" xmlns="http://www.w3.org/2000/svg" xmlns:xlink="http://www.w3.org/1999/xlink" x="0px" y="0px"
	 viewBox="0 0 504 504" style="enable-background:new 0 0 504 504;" xml:space="preserve">
<circle style="fill:#324A5E;" cx="252" cy="252" r="252"/>
<path style="fill:#2B3B4E;" d="M46.3,397.5C91.9,461.9,167,504,252,504s160.1-42.1,205.7-106.5H46.3z"/>
<g>
	<rect x="125.6" y="147.7" style="fill:#FFD05B;" width="252.8" height="121.6"/>
	<rect x="125.6" y="283.4" style="fill:#FFD05B;" width="252.8" height="114.7"/>
</g>
<g>
	<rect x="114.5" y="119.4" style="fill:#F1543F;" width="275" height="28.4"/>
	<rect x="114.5" y="267" style="fill:#F1543F;" width="275" height="16.4"/>
</g>
<rect x="95.5" y="377.1" style="fill:#E6E9EE;" width="313.1" height="21"/>
<rect x="226.1" y="321" style="fill:#2B3B4E;" width="55.3" height="77"/>
<g>
	<rect x="146.9" y="161.8" style="fill:#FFFFFF;" width="34.8" height="34.8"/>
	<rect x="205.4" y="161.8" style="fill:#FFFFFF;" width="34.8" height="34.8"/>
	<rect x="263.8" y="161.8" style="fill:#FFFFFF;" width="34.8" height="34.8"/>
	<rect x="322.2" y="161.8" style="fill:#FFFFFF;" width="34.8" height="34.8"/>
	<rect x="146.9" y="215.9" style="fill:#FFFFFF;" width="34.8" height="34.8"/>
	<rect x="205.4" y="215.9" style="fill:#FFFFFF;" width="34.8" height="34.8"/>
	<rect x="263.8" y="215.9" style="fill:#FFFFFF;" width="34.8" height="34.8"/>
	<rect x="322.2" y="215.9" style="fill:#FFFFFF;" width="34.8" height="34.8"/>
	<path style="fill:#FFFFFF;" d="M345.8,362.9h-40.3V334c0-11.1,9-20.2,20.2-20.2l0,0c11.1,0,20.2,9,20.2,20.2v28.9H345.8z"/>
	<path style="fill:#FFFFFF;" d="M198.5,362.9h-40.3v-44c0-2.8,2.3-5.1,5.1-5.1h30.1c2.8,0,5.1,2.3,5.1,5.1L198.5,362.9L198.5,362.9z
		"/>
</g>
<rect x="154.8" y="90.2" style="fill:#FF7058;" width="194.5" height="57.5"/>
<g>
	<path style="fill:#FFFFFF;" d="M196.9,103.7h7.1v31.9h-7.1V123h-12.7v12.5h-7.1v-31.9h7.1V117h12.7V103.7z"/>
	<path style="fill:#FFFFFF;" d="M238.7,131.1c-3.2,3.1-7.2,4.7-11.9,4.7s-8.7-1.6-11.9-4.7c-3.2-3.1-4.8-7.1-4.8-11.7
		c0-4.7,1.6-8.6,4.8-11.7s7.2-4.7,11.9-4.7s8.7,1.6,11.9,4.7s4.8,7.1,4.8,11.7C243.5,124.1,241.9,128,238.7,131.1z M236.3,119.4
		c0-2.8-0.9-5.3-2.7-7.3s-4.1-3-6.7-3c-2.7,0-4.9,1-6.7,3s-2.7,4.4-2.7,7.3c0,2.8,0.9,5.3,2.7,7.2c1.8,2,4.1,3,6.7,3
		c2.7,0,4.9-1,6.7-3C235.3,124.7,236.3,122.2,236.3,119.4z"/>
	<path style="fill:#FFFFFF;" d="M262.1,109.8v25.7H255v-25.7h-9v-6.2h25.2v6.2H262.1z"/>
	<path style="fill:#FFFFFF;" d="M299.3,103.7v6.3h-15.9v6.6h14.3v6.1h-14.3v6.6h16.4v6.3h-23.5v-31.9
		C276.3,103.7,299.3,103.7,299.3,103.7z"/>
	<path style="fill:#FFFFFF;" d="M306.2,135.5v-31.9h7.1v25.5h13.6v6.3h-20.7V135.5z"/>
</g>
<g>
</g>
<g>
</g>
<g>
</g>
<g>
</g>
<g>
</g>
<g>
</g>
<g>
</g>
<g>
</g>
<g>
</g>
<g>
</g>
<g>
</g>
<g>
</g>
<g>
</g>
<g>
</g>
<g>
</g>
</svg>
