<?xml version="1.0" encoding="iso-8859-1"?>
<!-- Generator: Adobe Illustrator 19.0.0, SVG Export Plug-In . SVG Version: 6.00 Build 0)  -->
<svg version="1.1" id="Capa_1" xmlns="http://www.w3.org/2000/svg" xmlns:xlink="http://www.w3.org/1999/xlink" x="0px" y="0px"
	 viewBox="0 0 512 512" style="enable-background:new 0 0 512 512;" xml:space="preserve">
<path style="fill:#FF5A81;" d="M465.965,68.94c0,38.02-30.93,68.94-68.94,68.94c-15.81,0-36.91-9.76-64.48-29.84
	c-18.96-13.82-33.95-27.44-34.58-28.01l-12.16-11.09l12.16-11.08c0.63-0.58,15.62-14.2,34.58-28.01
	C360.115,9.76,381.215,0,397.025,0C435.035,0,465.965,30.93,465.965,68.94z"/>
<path style="fill:#FF0536;" d="M465.965,68.94c0,38.02-30.93,68.94-68.94,68.94c-15.81,0-36.91-9.76-64.48-29.84
	c-18.96-13.82-33.95-27.44-34.58-28.01l-12.16-11.09H465.965z"/>
<path style="fill:#CAE8F9;" d="M408.905,349.71c0,67.5-37.11,129.02-96.85,160.56l-3.29,1.73h-162.59l-3.28-1.73
	c-59.75-31.54-96.86-93.06-96.86-160.56c0-37.59,11.4-73.65,32.96-104.29c21.08-29.94,50.25-52.58,84.37-65.47l2.56-0.97h123.09
	l2.56,0.97c34.12,12.89,63.3,35.53,84.37,65.47C397.505,276.06,408.905,312.12,408.905,349.71z"/>
<path style="fill:#B8E0F8;" d="M408.905,349.71c0,67.5-37.11,129.02-96.85,160.56l-3.29,1.73h-81.29V178.98h61.54l2.56,0.97
	c34.12,12.89,63.3,35.53,84.37,65.47C397.505,276.06,408.905,312.12,408.905,349.71z"/>
<rect x="261.27" y="53.94" style="fill:#7A7981;" width="41.16" height="30"/>
<rect x="158.58" y="53.94" style="fill:#AEADB3;" width="36.786" height="30"/>
<path style="fill:#FF5A81;" d="M364.395,345.77c0,50.94-28,97.37-73.09,121.16l-3.28,1.74h-121.1l-3.29-1.74
	c-45.08-23.79-73.09-70.22-73.09-121.16c0-1.42,0.04-2.82,0.08-4.23l0.44-14.54h272.81l0.44,14.54
	C364.365,342.95,364.395,344.35,364.395,345.77z"/>
<rect x="180.37" y="10.5" style="fill:#C8C6CD;" width="94.21" height="121.61"/>
<path style="fill:#FF0536;" d="M364.395,345.77c0,50.94-28,97.37-73.09,121.16l-3.28,1.74h-60.55V327h136.4l0.44,14.54
	C364.365,342.95,364.395,344.35,364.395,345.77z"/>
<g>
	<rect x="227.47" y="10.5" style="fill:#AEADB3;" width="47.1" height="121.61"/>
	<rect x="161.57" y="117.11" style="fill:#AEADB3;" width="131.79" height="63.89"/>
</g>
<rect x="227.47" y="117.11" style="fill:#7A7981;" width="65.89" height="63.89"/>
<g>
</g>
<g>
</g>
<g>
</g>
<g>
</g>
<g>
</g>
<g>
</g>
<g>
</g>
<g>
</g>
<g>
</g>
<g>
</g>
<g>
</g>
<g>
</g>
<g>
</g>
<g>
</g>
<g>
</g>
</svg>
